<svg xmlns="http://www.w3.org/2000/svg" width="192" height="20" viewBox="0 0 192 20"><defs><style>.a{fill:#fff;}</style></defs><g transform="translate(857 -22) rotate(90)"><g transform="translate(22 857) rotate(-90)"><rect class="a" width="62.379" height="1.667" transform="translate(0.055)"/><rect class="a" width="62.379" height="1.667" transform="translate(0.055 18.333)"/><g transform="translate(0 6.635)"><path class="a" d="M0,0H1.673l1.91,5.343L5.483,0H7.155L4.5,6.946H2.664Z" transform="translate(0 0.115)"/><path class="a" d="M0,0H1.466V6.946H0Z" transform="translate(9.86 0.115)"/><path class="a" d="M3.666,0a3.221,3.221,0,0,1,2.85,1.52L5.3,2.187a1.95,1.95,0,0,0-1.631-.875A2.155,2.155,0,0,0,1.508,3.593a2.154,2.154,0,0,0,2.158,2.28,2.317,2.317,0,0,0,1.487-.531V4.5H3.315V3.229H6.6V5.884A3.81,3.81,0,0,1,3.666,7.2,3.521,3.521,0,0,1,0,3.593,3.506,3.506,0,0,1,3.666,0Z" transform="translate(14.424)"/><path class="a" d="M0,0H1.466V6.946H0Z" transform="translate(24.253 0.115)"/><path class="a" d="M0,0H1.467V5.645H4.378v1.3H0Z" transform="translate(29.147 0.115)"/><path class="a" d="M5.121,5.749H2.045l-.434,1.2H0L2.664,0H4.5L7.155,6.946h-1.6ZM2.437,4.468H4.719L3.583,1.281Z" transform="translate(35.879 0.115)"/><path class="a" d="M0,0H2.715A3.388,3.388,0,0,1,6.371,3.478,3.38,3.38,0,0,1,2.715,6.946H0ZM2.715,5.645A2.071,2.071,0,0,0,4.873,3.478,2.024,2.024,0,0,0,2.715,1.3H1.466V5.645Z" transform="translate(45.739 0.115)"/><path class="a" d="M3.594,0A3.475,3.475,0,0,1,7.2,3.593a3.475,3.475,0,0,1-3.6,3.593A3.472,3.472,0,0,1,0,3.593,3.473,3.473,0,0,1,3.594,0Zm0,1.312A2.094,2.094,0,0,0,1.508,3.593a2.1,2.1,0,1,0,4.182,0A2.1,2.1,0,0,0,3.594,1.312Z" transform="translate(54.886)"/></g><g transform="translate(69.397 0.249)"><path class="a" d="M.436,5.45a2.021,2.021,0,0,0,1.537.74A1.078,1.078,0,0,0,3.183,5.1c0-.76-.625-1.07-1.309-1.4C1.081,3.32.2,2.92.2,1.75A1.761,1.761,0,0,1,2.092,0,2.371,2.371,0,0,1,3.857.7l-.416.6A1.786,1.786,0,0,0,2.073.71,1,1,0,0,0,1,1.71c0,.63.585.92,1.239,1.24.823.4,1.745.85,1.745,2.1A1.812,1.812,0,0,1,1.973,6.9,2.535,2.535,0,0,1,0,6.06Z"/><path class="a" d="M0,0H.793V4.521c0,1.03.486,1.56,1.329,1.56s1.338-.53,1.338-1.56V0h.784V4.511a2,2,0,0,1-2.122,2.28A2.007,2.007,0,0,1,0,4.511Z" transform="translate(5.066 0.11)"/><path class="a" d="M0,0H2.013A1.811,1.811,0,0,1,3.837,2,1.816,1.816,0,0,1,2.013,4H.794v2.67H0ZM1.934.7H.794V3.3h1.14c.684,0,1.091-.54,1.091-1.3S2.618.7,1.934.7Z" transform="translate(10.707 0.11)"/><path class="a" d="M0,0H3.4V.7H.793V2.911H3.332v.7H.793v2.35H3.4v.71H0Z" transform="translate(15.536 0.11)"/><path class="a" d="M1.745,4H.794v2.67H0V0H2.023A1.8,1.8,0,0,1,3.837,1.991a1.726,1.726,0,0,1-1.319,1.89l1.388,2.79H3.014ZM1.934.7H.794V3.3h1.14c.684,0,1.091-.54,1.091-1.3S2.618.7,1.934.7Z" transform="translate(20.106 0.11)"/><path class="a" d="M0,0H.794V6.671H0Z" transform="translate(25.153 0.11)"/><path class="a" d="M.794,1.521v5.15H0V0H.794l2.7,5.021V0h.793V6.671H3.521Z" transform="translate(27.334 0.11)"/><path class="a" d="M1.567.7H0V0H3.927V.7H2.35v5.97H1.567Z" transform="translate(32.559 0.11)"/><path class="a" d="M0,0H3.4V.7H.794V2.911H3.332v.7H.794v2.35H3.4v.71H0Z" transform="translate(37.427 0.11)"/><path class="a" d="M.793,1.521v5.15H0V0H.793l2.7,5.021V0h.793V6.671H3.52Z" transform="translate(41.998 0.11)"/><path class="a" d="M0,0H1.765C3.481,0,4.422,1.43,4.422,3.341s-.942,3.33-2.657,3.33H0ZM1.765,5.961c1.22,0,1.844-1.12,1.844-2.62S2.995.7,1.765.7H.794v5.26Z" transform="translate(47.669 0.11)"/><path class="a" d="M0,0H3.4V.7H.794V2.911H3.332v.7H.794v2.35H3.4v.71H0Z" transform="translate(53.26 0.11)"/><path class="a" d="M.794,1.521v5.15H0V0H.794l2.7,5.021V0h.793V6.671H3.52Z" transform="translate(57.831 0.11)"/><path class="a" d="M0,3.45C0,1.45.992,0,2.548,0A2.12,2.12,0,0,1,4.5,1.3l-.655.31a1.438,1.438,0,0,0-1.3-.9C1.5.71.813,1.87.813,3.45S1.5,6.19,2.548,6.19A1.443,1.443,0,0,0,3.857,5.2l.665.31A2.139,2.139,0,0,1,2.548,6.9C.992,6.9,0,5.44,0,3.45Z" transform="translate(63.274)"/><path class="a" d="M0,0H.794V6.671H0Z" transform="translate(68.786 0.11)"/><path class="a" d="M3.659,5.161H1.249L.823,6.671H0L1.983,0h.942L4.908,6.671H4.085Zm-2.241-.7H3.49L2.449.761Z" transform="translate(70.353 0.11)"/><path class="a" d="M0,0H3.4V.7H.794V2.911H3.332v.7H.794v3.06H0Z" transform="translate(78.165 0.11)"/><path class="a" d="M0,0H.793V6.671H0Z" transform="translate(82.637 0.11)"/><path class="a" d="M.794,1.521v5.15H0V0H.794l2.7,5.021V0h.793V6.671H3.52Z" transform="translate(84.818 0.11)"/><path class="a" d="M3.659,5.161H1.249L.823,6.671H0L1.983,0h.942L4.908,6.671H4.085Zm-2.241-.7H3.49L2.449.761Z" transform="translate(89.874 0.11)"/><path class="a" d="M.794,1.521v5.15H0V0H.794l2.7,5.021V0h.793V6.671H3.52Z" transform="translate(95.555 0.11)"/><path class="a" d="M0,3.45C0,1.45.991,0,2.548,0A2.119,2.119,0,0,1,4.5,1.3l-.655.31a1.438,1.438,0,0,0-1.3-.9C1.5.71.814,1.87.814,3.45S1.5,6.19,2.548,6.19A1.443,1.443,0,0,0,3.857,5.2l.664.31A2.14,2.14,0,0,1,2.548,6.9C.991,6.9,0,5.44,0,3.45Z" transform="translate(100.999)"/><path class="a" d="M0,0H.794V6.671H0Z" transform="translate(106.511 0.11)"/><path class="a" d="M0,0H3.4V.7H.794V2.911H3.332v.7H.794v2.35H3.4v.71H0Z" transform="translate(108.692 0.11)"/><path class="a" d="M1.745,4H.794v2.67H0V0H2.023A1.8,1.8,0,0,1,3.837,1.991a1.726,1.726,0,0,1-1.319,1.89l1.388,2.79H3.014ZM1.934.7H.794V3.3h1.14c.684,0,1.091-.54,1.091-1.3S2.618.7,1.934.7Z" transform="translate(113.262 0.11)"/><path class="a" d="M3.659,5.161H1.249L.823,6.671H0L1.983,0h.942L4.908,6.671H4.085Zm-2.241-.7H3.49L2.449.761Z" transform="translate(117.694 0.11)"/><path class="a" d="M0,0H1.765C3.48,0,4.422,1.431,4.422,3.34S3.48,6.671,1.765,6.671H0ZM1.765,5.961c1.219,0,1.845-1.12,1.845-2.62S2.995.7,1.765.7H.794v5.26Z" transform="translate(35.662 12.11)"/><path class="a" d="M0,0H3.4V.7H.794v2.21H3.332v.7H.794v2.35H3.4v.71H0Z" transform="translate(41.254 12.11)"/><path class="a" d="M0,3.451C0,1.451.991,0,2.548,0A2.119,2.119,0,0,1,4.5,1.3l-.655.31a1.438,1.438,0,0,0-1.3-.9C1.5.711.813,1.871.813,3.451s.684,2.74,1.735,2.74A1.444,1.444,0,0,0,3.857,5.2l.664.31A2.14,2.14,0,0,1,2.548,6.9C.991,6.9,0,5.441,0,3.451Z" transform="translate(47.728 12)"/><path class="a" d="M2.5,0C4.105,0,5.007,1.52,5.007,3.451S4.105,6.9,2.5,6.9,0,5.381,0,3.451.892,0,2.5,0Zm0,.711C1.408.711.813,1.91.813,3.451c0,1.52.595,2.74,1.685,2.74s1.7-1.221,1.7-2.74C4.194,1.91,3.6.711,2.5.711Z" transform="translate(53.013 12)"/><path class="a" d="M0,0H.794V5.961H3.183v.71H0Z" transform="translate(59.179 12.11)"/><path class="a" d="M2.5,0C4.105,0,5.007,1.52,5.007,3.451S4.105,6.9,2.5,6.9,0,5.381,0,3.451.892,0,2.5,0Zm0,.711C1.408.711.813,1.91.813,3.451c0,1.52.594,2.74,1.685,2.74s1.7-1.221,1.7-2.74C4.194,1.91,3.6.711,2.5.711Z" transform="translate(62.818 12)"/><path class="a" d="M4.611,1.28,2.846,6.671H2.538L.794,1.28V6.671H0V0H1.1L2.7,4.891,4.3,0H5.384V6.671H4.611Z" transform="translate(68.985 12.11)"/><path class="a" d="M0,0H2.191A1.552,1.552,0,0,1,3.828,1.7a1.462,1.462,0,0,1-1.011,1.53,1.586,1.586,0,0,1,1.12,1.64,1.6,1.6,0,0,1-1.685,1.8H0ZM2.043,2.911c.674,0,.971-.48.971-1.1S2.717.7,2.043.7H.794v2.21Zm.049,3.05c.684,0,1.032-.44,1.032-1.17a1.044,1.044,0,0,0-1.032-1.18H.794v2.35Z" transform="translate(75.756 12.11)"/><path class="a" d="M0,0H.794V6.671H0Z" transform="translate(80.872 12.11)"/><path class="a" d="M3.659,5.161H1.249L.823,6.671H0L1.983,0h.942L4.908,6.671H4.085Zm-2.241-.7H3.49L2.449.76Z" transform="translate(82.439 12.11)"/></g></g></g></svg>